# xmcd
# 
# Track frame offsets:
#     150
#     10940
#     21707
#     36180
#     49617
#     60760
#     73150
#     91885
#     104485
#     114925
#     130210
#     142975
#     170695
# 
# Disc length: 2797
# 
# Revision: 22
# Processed by: cddbd v1.5.2PL0 Copyright (c) Steve Scherf et al.
# Submitted via: fre:ac v1.1beta1pre5
# 
DISCID=ae0aeb0d
DTITLE=Blink 182 - Enema of the State
DYEAR=1999
DGENRE=Punk
TTITLE0=Dumpweed
TTITLE1=Don't Leave Me
TTITLE2=Aliens Exist
TTITLE3=Going Away to College
TTITLE4=What's My Age Again?
TTITLE5=Dysentery Gary
TTITLE6=Adam's Song
TTITLE7=All The Small Things
TTITLE8=The Party Song
TTITLE9=Mutt
TTITLE10=Wendy Clear
TTITLE11=Anthem
TTITLE12=Data Track
EXTD=
EXTT0=
EXTT1=
EXTT2=
EXTT3=
EXTT4=
EXTT5=
EXTT6=
EXTT7=
EXTT8=
EXTT9=
EXTT10=
EXTT11=
EXTT12=
PLAYORDER=
